<?xml version="1.0" standalone="no"?>
<!DOCTYPE svg PUBLIC "-//W3C//DTD SVG 20010904//EN"
 "http://www.w3.org/TR/2001/REC-SVG-20010904/DTD/svg10.dtd">
<svg version="1.0" xmlns="http://www.w3.org/2000/svg"
 width="200.000000pt" height="200.000000pt" viewBox="0 0 200.000000 200.000000"
 preserveAspectRatio="xMidYMid meet">
<metadata>
Created by potrace 1.14, written by Peter Selinger 2001-2017
</metadata>
<g transform="translate(0.000000,200.000000) scale(0.100000,-0.100000)"
fill="#000000" stroke="none">
<path d="M1421 1990 c-125 -27 -238 -112 -299 -227 -55 -105 -74 -197 -75
-363 -1 -215 33 -327 129 -430 56 -60 139 -99 312 -144 145 -39 176 -52 208
-88 39 -42 48 -71 48 -148 0 -107 -30 -162 -114 -206 -31 -17 -67 -20 -325
-24 -332 -6 -329 -5 -432 -103 -56 -53 -133 -188 -133 -233 l0 -24 393 0 c222
0 420 5 457 11 142 22 268 112 333 237 57 109 71 176 72 347 0 165 -10 223
-56 322 -59 126 -150 188 -384 261 -147 47 -181 65 -221 118 -25 33 -29 47
-32 119 -3 68 0 89 17 123 57 111 234 142 383 66 26 -13 72 -44 102 -69 31
-25 57 -45 60 -45 2 0 27 68 56 151 l52 150 -28 30 c-45 47 -155 116 -230 145
-77 29 -214 40 -293 24z"/>
<path d="M1208 1969 c-121 -44 -200 -117 -254 -234 -41 -89 -43 -115 -11 -115
19 0 26 8 37 43 37 123 127 238 225 287 62 31 59 29 54 33 -2 2 -25 -4 -51
-14z"/>
<path d="M0 1005 l0 -975 125 0 125 0 0 385 0 385 265 0 265 0 0 175 0 175
-265 0 -265 0 2 238 3 237 197 3 197 2 12 38 c41 126 130 237 229 285 l55 26
-472 1 -473 0 0 -975z"/>
<path d="M969 1961 c-101 -39 -184 -122 -233 -232 -41 -92 -42 -99 -8 -99 25
0 30 5 41 43 36 119 132 235 236 283 59 28 31 31 -36 5z"/>
<path d="M1086 1965 c-53 -19 -141 -80 -177 -124 -34 -41 -86 -145 -95 -190
-6 -28 -4 -31 18 -31 22 0 28 9 48 63 12 34 33 81 46 103 34 59 124 140 186
169 57 26 39 33 -26 10z"/>
<path d="M374 347 c-2 -7 -3 -87 -2 -177 l3 -165 41 -3 c48 -4 55 3 79 76 21
67 85 161 132 198 20 16 59 41 87 56 l51 27 -193 1 c-148 0 -194 -3 -198 -13z"/>
<path d="M788 345 c-51 -19 -118 -66 -158 -111 -33 -38 -94 -156 -106 -206 -6
-26 -4 -28 23 -28 26 0 31 5 43 43 36 123 129 241 223 285 26 12 47 24 47 27
0 9 -34 4 -72 -10z"/>
<path d="M899 346 c-119 -42 -239 -185 -265 -314 -7 -32 -6 -33 21 -30 24 3
30 11 49 64 13 34 34 82 49 106 32 55 114 131 176 163 51 26 31 33 -30 11z"/>
</g>
</svg>
